G04 EAGLE Gerber RS-274X export*
G75*
%MOMM*%
%FSLAX34Y34*%
%LPD*%
%INSoldermask Bottom*%
%IPPOS*%
%AMOC8*
5,1,8,0,0,1.08239X$1,22.5*%
G01*
%ADD10C,3.403200*%
%ADD11C,4.203200*%
%ADD12C,3.203200*%
%ADD13R,1.727200X1.727200*%
%ADD14P,1.869504X8X202.500000*%
%ADD15P,1.869504X8X22.500000*%
%ADD16P,1.869504X8X292.500000*%
%ADD17R,1.503200X1.503200*%
%ADD18R,1.603200X1.603200*%
%ADD19P,1.640903X8X22.500000*%
%ADD20C,2.082800*%
%ADD21P,1.869504X8X112.500000*%
%ADD22C,1.603200*%
%ADD23P,1.640903X8X202.500000*%
%ADD24C,1.543200*%
%ADD25R,1.879600X1.016000*%
%ADD26P,1.951982X8X202.500000*%
%ADD27C,1.803400*%
%ADD28P,1.951982X8X22.500000*%
%ADD29P,1.640903X8X112.500000*%
%ADD30C,1.727200*%
%ADD31C,1.603200*%
%ADD32R,1.003200X1.403200*%
%ADD33R,2.209800X1.701800*%
%ADD34R,2.209800X4.013200*%
%ADD35C,2.870200*%
%ADD36C,2.755900*%
%ADD37C,2.743200*%


D10*
X1248400Y420000D03*
X1638400Y70000D03*
D11*
X1100200Y910100D03*
X1501800Y910100D03*
D12*
X895000Y1900000D03*
X1085000Y1460000D03*
X935000Y1040000D03*
X935000Y1200000D03*
X1250000Y1040000D03*
X1250000Y1830000D03*
X1505000Y1310000D03*
X1615000Y1310000D03*
X1505000Y1110000D03*
X1615000Y1110000D03*
X1755000Y1790000D03*
X1505000Y1790000D03*
D13*
X50500Y686600D03*
D14*
X50500Y711600D03*
X50500Y736600D03*
X50500Y761600D03*
X50500Y786600D03*
D13*
X59500Y242900D03*
D15*
X59500Y217900D03*
X59500Y192900D03*
X59500Y167900D03*
D13*
X789500Y782200D03*
D15*
X789500Y757200D03*
X789500Y732200D03*
X789500Y707200D03*
D13*
X727800Y61600D03*
D16*
X702800Y61600D03*
X677800Y61600D03*
D17*
X496300Y290200D03*
X369300Y290200D03*
X420100Y290200D03*
X445500Y290200D03*
X470900Y290200D03*
X394700Y290200D03*
D18*
X485200Y337100D03*
X383600Y337100D03*
X459800Y337100D03*
X434400Y436100D03*
X459800Y436100D03*
X485200Y436100D03*
X358200Y337100D03*
X434400Y337100D03*
X409000Y436100D03*
X409000Y337100D03*
X383600Y436100D03*
X510600Y337100D03*
X119900Y408200D03*
X119900Y382800D03*
X119900Y357400D03*
X119900Y332000D03*
X119900Y433600D03*
X119900Y459000D03*
D19*
X197300Y930000D03*
X222700Y930000D03*
D20*
X71900Y930000D03*
X148100Y930000D03*
D18*
X655000Y510800D03*
X655000Y409200D03*
X655000Y485400D03*
X754000Y460000D03*
X754000Y485400D03*
X655000Y383800D03*
X655000Y460000D03*
X754000Y434600D03*
X655000Y434600D03*
X655000Y536200D03*
D13*
X337500Y50000D03*
D21*
X362500Y50000D03*
X387500Y50000D03*
X412500Y50000D03*
X437500Y50000D03*
X462500Y50000D03*
X487500Y50000D03*
X512500Y50000D03*
D20*
X275000Y736900D03*
X275000Y813100D03*
X235000Y736900D03*
X235000Y813100D03*
X195000Y813100D03*
X195000Y736900D03*
X155000Y736900D03*
X155000Y813100D03*
D13*
X437500Y945000D03*
D16*
X412500Y945000D03*
X387500Y945000D03*
X362500Y945000D03*
D13*
X557500Y945000D03*
D16*
X532500Y945000D03*
X507500Y945000D03*
X482500Y945000D03*
D13*
X210000Y107500D03*
D14*
X210000Y132500D03*
X210000Y157500D03*
X210000Y182500D03*
D13*
X140000Y107500D03*
D14*
X140000Y132500D03*
X140000Y157500D03*
X140000Y182500D03*
D20*
X580000Y813100D03*
X580000Y736900D03*
X620000Y736900D03*
X620000Y813100D03*
X660000Y736900D03*
X660000Y813100D03*
X700000Y813100D03*
X700000Y736900D03*
D18*
X320100Y479000D03*
X551900Y275700D03*
X551900Y504300D03*
X551900Y250300D03*
X551900Y529700D03*
X577300Y275700D03*
X294700Y479000D03*
X320100Y225000D03*
X577300Y250300D03*
X577300Y301100D03*
X551900Y301100D03*
X577300Y326500D03*
X551900Y351900D03*
X294700Y326600D03*
X294700Y377400D03*
X294700Y275800D03*
X294700Y529800D03*
X294700Y504400D03*
X320100Y453600D03*
X320100Y529800D03*
X320100Y504400D03*
X320100Y275800D03*
X294700Y225000D03*
X294700Y402800D03*
X320100Y377400D03*
X320100Y352000D03*
X294700Y352000D03*
X320100Y326600D03*
X577300Y377300D03*
X551900Y402700D03*
X551900Y428100D03*
X577300Y402700D03*
X577300Y428100D03*
X551900Y453500D03*
X320100Y301200D03*
X294700Y301200D03*
X577300Y224900D03*
X551900Y326500D03*
X577300Y351900D03*
X551900Y377300D03*
X577300Y453500D03*
X551900Y478900D03*
X577300Y478900D03*
X577300Y504300D03*
X294700Y453600D03*
X320100Y428200D03*
X294700Y428200D03*
X294700Y250400D03*
X320100Y402800D03*
X320100Y250400D03*
X551900Y224900D03*
X577300Y529700D03*
D22*
X602000Y49000D03*
X582000Y49000D03*
D23*
X1670000Y637300D03*
X1593800Y637300D03*
D24*
X1550300Y409100D03*
X1563000Y421800D03*
X1537600Y421800D03*
X1563000Y396400D03*
X1537600Y396400D03*
X1499800Y409100D03*
X1512500Y421800D03*
X1487100Y421800D03*
X1512500Y396400D03*
X1487100Y396400D03*
D14*
X1510900Y679400D03*
X1510700Y633400D03*
D13*
X1615200Y841800D03*
D14*
X1615200Y866800D03*
X1615200Y891800D03*
X1615200Y916800D03*
X1615200Y941800D03*
D18*
X1090600Y387500D03*
X1065200Y387500D03*
X1039800Y387500D03*
X1116000Y387500D03*
D25*
X1141500Y311000D03*
X1141500Y298300D03*
X1141500Y285600D03*
X1141500Y229900D03*
X1141500Y217200D03*
X1141500Y204500D03*
X1141500Y191800D03*
X1141500Y179100D03*
X1141500Y166400D03*
X1141500Y153700D03*
X1141500Y141000D03*
X1001800Y141000D03*
X1001800Y153700D03*
X1001800Y166400D03*
X1001800Y179100D03*
X1001800Y191800D03*
X1001800Y204500D03*
X1001800Y217200D03*
X1001800Y229900D03*
X1001800Y285600D03*
X1001800Y298300D03*
X1001800Y311000D03*
D18*
X1465300Y509000D03*
X944000Y621700D03*
X982700Y534400D03*
X1504000Y851300D03*
X1024400Y886300D03*
X1504000Y800500D03*
X982700Y509000D03*
X1465300Y534400D03*
X999000Y886300D03*
X944000Y596300D03*
X1439900Y509000D03*
X944000Y647100D03*
X944000Y672500D03*
X944000Y823700D03*
X944000Y798300D03*
X944000Y772900D03*
X944000Y747500D03*
X1262100Y509000D03*
X1084300Y509000D03*
X1084300Y534400D03*
X1058900Y509000D03*
X1058900Y534400D03*
X1033500Y509000D03*
X1033500Y534400D03*
X1008100Y509000D03*
X1008100Y534400D03*
X1389100Y534400D03*
X1389100Y509000D03*
X1414500Y534400D03*
X1414500Y509000D03*
X1049800Y886300D03*
X1075200Y886300D03*
X1439900Y534400D03*
X1363700Y509000D03*
X1236700Y534400D03*
X1236700Y509000D03*
X1262100Y534400D03*
X1185900Y509000D03*
X1211300Y534400D03*
X1135100Y509000D03*
X1135100Y534400D03*
X1109700Y534400D03*
X1338300Y534400D03*
X1338300Y509000D03*
X1363700Y534400D03*
X1109700Y509000D03*
X1160500Y534400D03*
X1160500Y509000D03*
X1185900Y534400D03*
X1211300Y509000D03*
X1287500Y534400D03*
X1287500Y509000D03*
X1312900Y534400D03*
X1312900Y509000D03*
X1504000Y775100D03*
X1504000Y825900D03*
X1625000Y745000D03*
X1599600Y745000D03*
X1574200Y745000D03*
X1548800Y745000D03*
X1650400Y745000D03*
X1675800Y745000D03*
D23*
X1109100Y47000D03*
X1032900Y47000D03*
D26*
X1606220Y779000D03*
D27*
X1641780Y779000D03*
D22*
X1014000Y453000D03*
X1034000Y453000D03*
X1443000Y463000D03*
X1423000Y463000D03*
D28*
X1600300Y690000D03*
X1625700Y690000D03*
D22*
X1175000Y450000D03*
X1195000Y450000D03*
D19*
X1034900Y84000D03*
X1111100Y84000D03*
D22*
X1468000Y970000D03*
X1488000Y970000D03*
D13*
X905000Y437500D03*
D15*
X905000Y412500D03*
X905000Y387500D03*
X905000Y362500D03*
X905000Y337500D03*
X905000Y312500D03*
X905000Y287500D03*
X905000Y262500D03*
D14*
X148300Y1121200D03*
X200100Y1121200D03*
D13*
X817300Y1121500D03*
D14*
X817300Y1146500D03*
X817300Y1171500D03*
X817300Y1196500D03*
D15*
X404600Y1096200D03*
X439300Y1096200D03*
D29*
X797400Y1552000D03*
X797400Y1577400D03*
D30*
X638900Y1228920D02*
X638900Y1213680D01*
X613500Y1213680D02*
X613500Y1228920D01*
X588100Y1228920D02*
X588100Y1213680D01*
X430100Y1211980D02*
X430100Y1227220D01*
X404700Y1227220D02*
X404700Y1211980D01*
X379300Y1211980D02*
X379300Y1227220D01*
X263900Y1226220D02*
X263900Y1210980D01*
X238500Y1210980D02*
X238500Y1226220D01*
X213100Y1226220D02*
X213100Y1210980D01*
X637200Y1451980D02*
X637200Y1467220D01*
X611800Y1467220D02*
X611800Y1451980D01*
X586400Y1451980D02*
X586400Y1467220D01*
X636500Y1681980D02*
X636500Y1697220D01*
X611100Y1697220D02*
X611100Y1681980D01*
X585700Y1681980D02*
X585700Y1697220D01*
X635800Y1901980D02*
X635800Y1917220D01*
X610400Y1917220D02*
X610400Y1901980D01*
X585000Y1901980D02*
X585000Y1917220D01*
D20*
X363900Y1167800D03*
X440100Y1167800D03*
X201900Y1166900D03*
X278100Y1166900D03*
X319900Y1245700D03*
X319900Y1169500D03*
X567700Y1840900D03*
X643900Y1840900D03*
X732900Y1903900D03*
X732900Y1827700D03*
X398500Y1573900D03*
X474700Y1573900D03*
X397900Y1599900D03*
X474100Y1599900D03*
X397300Y1624900D03*
X473500Y1624900D03*
X396700Y1649900D03*
X472900Y1649900D03*
X397100Y1675900D03*
X473300Y1675900D03*
X514800Y1234700D03*
X514800Y1158500D03*
X570700Y1152800D03*
X646900Y1152800D03*
X729800Y1217900D03*
X729800Y1141700D03*
X567500Y1392800D03*
X643700Y1392800D03*
X729800Y1456100D03*
X729800Y1379900D03*
X569300Y1622800D03*
X645500Y1622800D03*
X732900Y1690900D03*
X732900Y1614700D03*
X797100Y1429500D03*
X797100Y1505700D03*
D13*
X64300Y1913200D03*
D15*
X64300Y1888200D03*
X64300Y1863200D03*
X64300Y1838200D03*
X64300Y1813200D03*
D13*
X810700Y1662100D03*
D14*
X810700Y1687100D03*
X810700Y1712100D03*
X810700Y1737100D03*
X810700Y1762100D03*
D31*
X340700Y1904200D02*
X326700Y1904200D01*
X188300Y1472400D02*
X174300Y1472400D01*
X219400Y1490800D02*
X219400Y1504800D01*
X188300Y1523200D02*
X174300Y1523200D01*
X326700Y1574000D02*
X340700Y1574000D01*
X340700Y1599400D02*
X326700Y1599400D01*
X326700Y1624800D02*
X340700Y1624800D01*
X340700Y1650200D02*
X326700Y1650200D01*
X326700Y1675600D02*
X340700Y1675600D01*
X340700Y1701000D02*
X326700Y1701000D01*
X326700Y1726400D02*
X340700Y1726400D01*
X340700Y1751800D02*
X326700Y1751800D01*
X188300Y1853400D02*
X174300Y1853400D01*
X174300Y1828000D02*
X188300Y1828000D01*
X188300Y1802600D02*
X174300Y1802600D01*
X174300Y1777200D02*
X188300Y1777200D01*
X188300Y1751800D02*
X174300Y1751800D01*
X174300Y1726400D02*
X188300Y1726400D01*
X326700Y1777200D02*
X340700Y1777200D01*
X340700Y1802600D02*
X326700Y1802600D01*
X188300Y1701000D02*
X174300Y1701000D01*
X174300Y1675600D02*
X188300Y1675600D01*
X188300Y1650200D02*
X174300Y1650200D01*
X174300Y1624800D02*
X188300Y1624800D01*
X188300Y1599400D02*
X174300Y1599400D01*
X174300Y1574000D02*
X188300Y1574000D01*
X188300Y1548600D02*
X174300Y1548600D01*
X326700Y1828000D02*
X340700Y1828000D01*
X340700Y1853400D02*
X326700Y1853400D01*
X188300Y1955000D02*
X174300Y1955000D01*
X174300Y1929600D02*
X188300Y1929600D01*
X188300Y1904200D02*
X174300Y1904200D01*
X174300Y1878800D02*
X188300Y1878800D01*
X326700Y1497800D02*
X340700Y1497800D01*
X340700Y1523200D02*
X326700Y1523200D01*
X326700Y1548600D02*
X340700Y1548600D01*
X340700Y1955000D02*
X326700Y1955000D01*
X326700Y1929600D02*
X340700Y1929600D01*
X188300Y1497800D02*
X174300Y1497800D01*
X295600Y1490800D02*
X295600Y1504800D01*
X326700Y1878800D02*
X340700Y1878800D01*
X270200Y1504800D02*
X270200Y1490800D01*
X244800Y1490800D02*
X244800Y1504800D01*
X326700Y1472400D02*
X340700Y1472400D01*
D18*
X667500Y1792300D03*
X642100Y1792300D03*
X616700Y1792300D03*
X692900Y1792300D03*
X565900Y1792300D03*
X613300Y1956300D03*
X591300Y1792300D03*
X638700Y1956300D03*
X668900Y1102300D03*
X643500Y1102300D03*
X618100Y1102300D03*
X694300Y1102300D03*
X567300Y1102300D03*
X614700Y1266300D03*
X592700Y1102300D03*
X640100Y1266300D03*
D17*
X63000Y1312200D03*
X63000Y1492200D03*
X463000Y1312200D03*
X463000Y1492200D03*
D12*
X113000Y1322200D03*
X413000Y1482200D03*
D17*
X64100Y1540100D03*
X64100Y1720100D03*
X464100Y1540100D03*
X464100Y1720100D03*
D12*
X114100Y1550100D03*
X414100Y1710100D03*
D18*
X252100Y1305700D03*
X277500Y1305700D03*
X302900Y1305700D03*
X328300Y1305700D03*
X226700Y1305700D03*
X201300Y1305700D03*
D17*
X62300Y1770100D03*
X62300Y1950100D03*
X462300Y1770100D03*
X462300Y1950100D03*
D12*
X112300Y1780100D03*
X412300Y1940100D03*
D18*
X667500Y1565200D03*
X642100Y1565200D03*
X616700Y1565200D03*
X692900Y1565200D03*
X565900Y1565200D03*
X613300Y1729200D03*
X591300Y1565200D03*
X638700Y1729200D03*
X668900Y1335200D03*
X643500Y1335200D03*
X618100Y1335200D03*
X694300Y1335200D03*
X567300Y1335200D03*
X614700Y1499200D03*
X592700Y1335200D03*
X640100Y1499200D03*
D13*
X564500Y1066000D03*
D21*
X589500Y1066000D03*
X614500Y1066000D03*
X639500Y1066000D03*
X664500Y1066000D03*
X689500Y1066000D03*
D13*
X203000Y1068000D03*
D16*
X178000Y1068000D03*
X153000Y1068000D03*
D32*
X1001700Y1599700D03*
X983700Y1599700D03*
X1001800Y1622700D03*
X983800Y1622700D03*
D33*
X1021004Y1577094D03*
X1021004Y1599954D03*
X1021004Y1622814D03*
D34*
X1083996Y1599700D03*
D16*
X1090000Y1117400D03*
X1091000Y1143200D03*
X980000Y1536000D03*
X1005000Y1535800D03*
X1030000Y1535600D03*
D17*
X879400Y1594100D03*
X879400Y1619500D03*
X879400Y1543300D03*
X879400Y1568700D03*
D11*
X1039400Y1466400D03*
X999400Y1696400D03*
D17*
X912800Y1672000D03*
X912800Y1692000D03*
X912800Y1712000D03*
D22*
X956400Y1363200D03*
X956400Y1383200D03*
X976400Y1363200D03*
X976400Y1383200D03*
X996400Y1363200D03*
X996400Y1383200D03*
X1016400Y1363200D03*
X1016400Y1383200D03*
X1036400Y1363200D03*
X1036400Y1383200D03*
X1056400Y1363200D03*
X1056400Y1383200D03*
X1076400Y1363200D03*
X1076400Y1383200D03*
X892800Y1500800D03*
X912800Y1500800D03*
X892800Y1480800D03*
X912800Y1480800D03*
X892800Y1460800D03*
X912800Y1460800D03*
X892800Y1440800D03*
X912800Y1440800D03*
X891600Y1403000D03*
X911600Y1403000D03*
X891600Y1383000D03*
X911600Y1383000D03*
X891600Y1363000D03*
X911600Y1363000D03*
X891600Y1343000D03*
X911600Y1343000D03*
X1036800Y1072400D03*
X1036800Y1092400D03*
X1056800Y1072400D03*
X1056800Y1092400D03*
X1076800Y1072400D03*
X1076800Y1092400D03*
D18*
X938200Y1774000D03*
X1039800Y1774000D03*
X963600Y1774000D03*
X989000Y1873000D03*
X963600Y1873000D03*
X1065200Y1774000D03*
X989000Y1774000D03*
X1014400Y1873000D03*
X1014400Y1774000D03*
X912800Y1774000D03*
D20*
X879000Y1647900D03*
X879000Y1724100D03*
D33*
X1362196Y1649606D03*
X1362196Y1626746D03*
X1362196Y1603886D03*
D34*
X1299204Y1627000D03*
D13*
X1395900Y1118500D03*
D15*
X1395900Y1093500D03*
X1395900Y1068500D03*
X1395900Y1043500D03*
D18*
X1424300Y1440100D03*
X1424300Y1465500D03*
X1424300Y1490900D03*
X1424300Y1516300D03*
X1424300Y1414700D03*
X1424300Y1389300D03*
D32*
X1409900Y1635400D03*
X1427900Y1635400D03*
X1409900Y1603500D03*
X1427900Y1603500D03*
D19*
X1383900Y1670700D03*
X1409300Y1670700D03*
D20*
X1271200Y1672200D03*
X1347400Y1672200D03*
D13*
X1317500Y1041500D03*
D14*
X1317500Y1066500D03*
X1317500Y1091500D03*
D13*
X1255000Y1367500D03*
D15*
X1255000Y1342500D03*
X1255000Y1317500D03*
X1255000Y1292500D03*
X1255000Y1267500D03*
X1255000Y1242500D03*
X1255000Y1217500D03*
X1255000Y1192500D03*
X1255000Y1167500D03*
X1255000Y1142500D03*
D13*
X1392500Y1205000D03*
D16*
X1367500Y1205000D03*
X1342500Y1205000D03*
X1317500Y1205000D03*
D13*
X1392500Y1295000D03*
D16*
X1367500Y1295000D03*
X1342500Y1295000D03*
X1317500Y1295000D03*
D13*
X1172500Y1785000D03*
D21*
X1197500Y1785000D03*
X1222500Y1785000D03*
X1247500Y1785000D03*
X1272500Y1785000D03*
X1297500Y1785000D03*
X1322500Y1785000D03*
X1347500Y1785000D03*
D13*
X1172500Y1725000D03*
D21*
X1197500Y1725000D03*
X1222500Y1725000D03*
X1247500Y1725000D03*
X1272500Y1725000D03*
X1297500Y1725000D03*
X1322500Y1725000D03*
X1347500Y1725000D03*
D18*
X1205000Y1567700D03*
X1205000Y1542300D03*
X1205000Y1516900D03*
X1205000Y1491500D03*
X1205000Y1466100D03*
X1205000Y1440700D03*
X1205000Y1593100D03*
X1205000Y1618500D03*
X1205000Y1643900D03*
X1205000Y1669300D03*
D35*
X1686000Y1208500D03*
D36*
X1660600Y1233900D03*
X1711400Y1233900D03*
X1711400Y1183100D03*
X1660600Y1183100D03*
D22*
X1569900Y1114500D03*
X1549900Y1114500D03*
X1569900Y1303300D03*
X1549900Y1303300D03*
D37*
X1629000Y1527600D03*
D35*
X1629000Y1732100D03*
D36*
X1603600Y1706700D03*
X1603600Y1757500D03*
X1654400Y1757500D03*
X1654400Y1706700D03*
M02*
