M48
;GenerationSoftware,Autodesk,EAGLE,9.3.0*%
;CreationDate,2019-05-15T17:35:36Z*%
FMAT,2
ICI,OFF
METRIC,TZ,000.000
T11C0.500
T10C0.800
T7C0.900
T6C1.000
T4C1.800
T3C3.000
T2C3.200
T1C4.000
%
G90
M71
T1
X99940Y169640
X150180Y91010
X110020Y91010
X103940Y146640
T2
X163840Y7000
X124840Y42000
T3
X150500Y131000
X161500Y131000
X150500Y111000
X161500Y111000
X175500Y179000
X11230Y178010
X11300Y132220
X41300Y148220
X11410Y155010
X41410Y171010
X41230Y194010
X150500Y179000
X89500Y190000
X108500Y146000
X93500Y104000
X93500Y120000
X125000Y104000
X125000Y183000
T4
X162900Y173210
X168600Y120850
X165440Y175750
X160360Y175750
X160360Y170670
X166060Y118310
X171140Y118310
X165440Y170670
X166060Y123390
X171140Y123390
T6
X38750Y94500
X36250Y94500
X55750Y94500
X53250Y94500
X50750Y94500
X48250Y94500
X21000Y10750
X21000Y13250
X21000Y15750
X21000Y18250
X14000Y10750
X14000Y13250
X14000Y15750
X81730Y119650
X81730Y117150
X14000Y18250
X161520Y84180
X161520Y86680
X161520Y89180
X161520Y91680
X161520Y94180
X81730Y114650
X81730Y112150
X20010Y112120
X14830Y112120
X90500Y26250
X90500Y28750
X33750Y5000
X36250Y5000
X38750Y5000
X41250Y5000
X43750Y5000
X46250Y5000
X48750Y5000
X51250Y5000
X90500Y31250
X90500Y33750
X90500Y36250
X90500Y38750
X134750Y172500
X132250Y172500
X129750Y172500
X127250Y172500
X124750Y172500
X122250Y172500
X119750Y172500
X117250Y172500
X134750Y178500
X132250Y178500
X129750Y178500
X127250Y178500
X124750Y178500
X122250Y178500
X119750Y178500
X117250Y178500
X131750Y129500
X134250Y129500
X136750Y129500
X139250Y129500
X90500Y41250
X131750Y120500
X134250Y120500
X136750Y120500
X139250Y120500
X125500Y114250
X125500Y116750
X125500Y119250
X125500Y121750
X125500Y124250
X125500Y126750
X125500Y129250
X125500Y131750
X125500Y134250
X125500Y136750
X131750Y109150
X131750Y106650
X131750Y104150
X139590Y104350
X139590Y106850
X139590Y109350
X139590Y111850
X103000Y153560
X100500Y153580
X98000Y153600
X109100Y114320
X109000Y111740
X15300Y106800
X17800Y106800
X20300Y106800
X68950Y106600
X66450Y106600
X63950Y106600
X61450Y106600
X58950Y106600
X56450Y106600
X78950Y78220
X81070Y176210
X81070Y173710
X81070Y171210
X81070Y168710
X81070Y166210
X5050Y76160
X6430Y183820
X6430Y186320
X6430Y188820
X6430Y191320
X58500Y190960
X61040Y190960
X63580Y190960
X58570Y168960
X61110Y168960
X63650Y168960
X58640Y145960
X61180Y145960
X63720Y145960
X21310Y121860
X23850Y121860
X26390Y121860
X37930Y121960
X5050Y78660
X5950Y24290
X5950Y21790
X5950Y19290
X6430Y181320
X5950Y16790
X40470Y121960
X78950Y75720
X78950Y73220
X78950Y70720
X72780Y6160
X70280Y6160
X67780Y6160
X43010Y121960
X58810Y122130
X61350Y122130
X63890Y122130
X43930Y109620
X40460Y109620
X90500Y43750
X151090Y67940
X151070Y63340
X43750Y94500
X41250Y94500
X5050Y68660
X5050Y71160
X5050Y73660
T7
X103640Y136320
X103640Y138320
X105640Y136320
X105640Y138320
X107640Y136320
X107640Y138320
X89280Y150080
X91280Y150080
X89280Y148080
X91280Y148080
X89280Y146080
X91280Y146080
X89280Y144080
X91280Y144080
X89160Y140300
X91160Y140300
X89160Y138300
X91160Y138300
X89160Y136300
X91160Y136300
X89160Y134300
X91160Y134300
X103680Y109240
X105680Y107240
X105680Y109240
X107680Y107240
X107680Y109240
X93820Y177400
X103980Y177400
X96360Y177400
X98900Y187300
X96360Y187300
X106520Y177400
X98900Y177400
X101440Y187300
X101440Y177400
X91280Y177400
X87900Y164790
X87900Y172410
X142430Y144010
X142430Y146550
X142430Y149090
X142430Y151630
X142430Y141470
X142430Y138930
X127120Y167220
X134740Y167220
X120500Y156770
X120500Y154230
X120500Y151690
X120500Y149150
X120500Y146610
X120500Y144070
X120500Y159310
X120500Y161850
X120500Y164390
X120500Y166930
X156990Y111450
X154990Y111450
X156990Y130330
X154990Y130330
X162900Y152760
X103680Y107240
X100810Y53440
X48520Y33710
X38360Y33710
X45980Y33710
X43440Y43610
X45980Y43610
X48520Y43610
X35820Y33710
X43440Y33710
X40900Y43610
X40900Y33710
X38360Y43610
X51060Y33710
X11990Y40820
X11990Y38280
X11990Y35740
X11990Y33200
X11990Y43360
X11990Y45900
X7190Y93000
X14810Y93000
X65500Y51080
X65500Y40920
X65500Y48540
X75400Y46000
X75400Y48540
X65500Y38380
X65500Y46000
X75400Y43460
X65500Y43460
X65500Y53620
X27500Y73690
X27500Y81310
X23500Y73690
X23500Y81310
X19500Y81310
X19500Y73690
X15500Y73690
X15500Y81310
X58000Y81310
X58000Y73690
X62000Y73690
X62000Y81310
X66000Y73690
X66000Y81310
X70000Y81310
X70000Y73690
X32010Y47900
X55190Y27570
X55190Y50430
X55190Y25030
X55190Y52970
X57730Y27570
X29470Y47900
X32010Y22500
X57730Y25030
X57730Y30110
X55190Y30110
X57730Y32650
X55190Y35190
X29470Y32660
X29470Y37740
X29470Y27580
X29470Y52980
X29470Y50440
X32010Y45360
X32010Y52980
X32010Y50440
X32010Y27580
X29470Y22500
X29470Y40280
X32010Y37740
X32010Y35200
X29470Y35200
X32010Y32660
X57730Y37730
X55190Y40270
X55190Y42810
X57730Y40270
X57730Y42810
X55190Y45350
X32010Y30120
X29470Y30120
X57730Y22490
X55190Y32650
X57730Y35190
X55190Y37730
X57730Y45350
X55190Y47890
X57730Y47890
X57730Y50430
X29470Y45360
X32010Y42820
X29470Y42820
X29470Y25040
X32010Y40280
X32010Y25040
X55190Y22490
X57730Y52970
X60200Y4900
X58200Y4900
X109060Y38750
X106520Y38750
X103980Y38750
X111600Y38750
X146530Y50900
X94400Y62170
X98270Y53440
X150400Y85130
X102440Y88630
X150400Y80050
X98270Y50900
X146530Y53440
X99900Y88630
X94400Y59630
X143990Y50900
X94400Y64710
X94400Y67250
X94400Y82370
X94400Y79830
X94400Y77290
X94400Y74750
X126210Y50900
X108430Y50900
X108430Y53440
X105890Y50900
X105890Y53440
X103350Y50900
X103350Y53440
X100810Y50900
X66890Y110230
X138910Y53440
X138910Y50900
X141450Y53440
X141450Y50900
X104980Y88630
X107520Y88630
X143990Y53440
X136370Y50900
X123670Y53440
X123670Y50900
X126210Y53440
X118590Y50900
X121130Y53440
X113510Y50900
X113510Y53440
X110970Y53440
X133830Y53440
X133830Y50900
X136370Y53440
X110970Y50900
X116050Y53440
X116050Y50900
X118590Y53440
X121130Y50900
X128750Y53440
X128750Y50900
X131290Y53440
X131290Y50900
X150400Y77510
X150400Y82590
X162500Y74500
X159960Y74500
X157420Y74500
X154880Y74500
X165040Y74500
X167580Y74500
X101400Y45300
X103400Y45300
X144300Y46300
X142300Y46300
X117500Y45000
X119500Y45000
X146800Y97000
X148800Y97000
X36390Y116780
X44010Y116780
X20190Y116690
X27810Y116690
X31990Y124570
X31990Y116950
X56770Y184090
X64390Y184090
X73290Y190390
X73290Y182770
X39850Y157390
X47470Y157390
X39790Y159990
X47410Y159990
X39730Y162490
X47350Y162490
X39670Y164990
X47290Y164990
X39710Y167590
X47330Y167590
X51480Y123470
X51480Y115850
X57070Y115280
X64690Y115280
X72980Y121790
X72980Y114170
X56750Y139280
X64370Y139280
X72980Y145610
X72980Y137990
X56930Y162280
X64550Y162280
X73290Y169090
X73290Y161470
X79710Y142950
X79710Y150570
X33370Y190420
X18130Y147240
X21940Y149780
X18130Y152320
X33370Y157400
X33370Y159940
X33370Y162480
X33370Y165020
X33370Y167560
X33370Y170100
X33370Y172640
X33370Y175180
X18130Y185340
X18130Y182800
X18130Y180260
X18130Y177720
X18130Y175180
X18130Y172640
X33370Y177720
X33370Y180260
X18130Y170100
X18130Y167560
X18130Y165020
X18130Y162480
X18130Y159940
X18130Y157400
X18130Y154860
X33370Y182800
X33370Y185340
X18130Y195500
X18130Y192960
X18130Y190420
X18130Y187880
X33370Y149780
X33370Y152320
X33370Y154860
X33370Y195500
X33370Y192960
X18130Y149780
X29560Y149780
X33370Y187880
X27020Y149780
X24480Y149780
X33370Y147240
X66750Y179230
X64210Y179230
X61670Y179230
X69290Y179230
X56590Y179230
X61330Y195630
X59130Y179230
X63870Y195630
X64350Y110230
X61810Y110230
X69430Y110230
X56730Y110230
X61470Y126630
X59270Y110230
X64010Y126630
X25210Y130570
X27750Y130570
X30290Y130570
X32830Y130570
X22670Y130570
X20130Y130570
X66750Y156520
X64210Y156520
X61670Y156520
X69290Y156520
X56590Y156520
X61330Y172920
X59130Y156520
X63870Y172920
X66890Y133520
X64350Y133520
X61810Y133520
X69430Y133520
X56730Y133520
X61470Y149920
X59270Y133520
X64010Y149920
X95640Y136320
X95640Y138320
X97640Y136320
X97640Y138320
X99640Y136320
X99640Y138320
X101640Y136320
X101640Y138320
T10
X149980Y40910
X148710Y39640
X151250Y39640
X148710Y42180
X151250Y42180
X153760Y39640
X156300Y39640
X153760Y42180
X156300Y42180
X155030Y40910
X79740Y155200
X167000Y63730
X22270Y93000
X110910Y4700
X19730Y93000
X79740Y157740
X160622Y77900
X160030Y69000
X162570Y69000
X103290Y4700
X103490Y8400
X138390Y167070
X140930Y167070
X111110Y8400
X164178Y77900
X159380Y63730
X46410Y172010
X87940Y154330
X87940Y156870
X6230Y177010
X6230Y195010
X46230Y177010
X46230Y195010
X91280Y169200
X91280Y171200
X39470Y29020
X47090Y29020
X91280Y167200
X44550Y29020
X42010Y29020
X36930Y29020
X49630Y29020
X87940Y159410
X6300Y131220
X46410Y154010
X6300Y149220
X46300Y131220
X46300Y149220
X6410Y154010
X6410Y172010
X87940Y161950
T11
X151800Y52100
X154800Y55500
X158200Y54000
X166500Y46900
X164400Y47400
X162800Y55800
X158800Y58000
X159000Y55700
X162800Y58000
X167200Y61100
X101600Y33800
X148900Y47500
X151000Y47500
X151000Y45600
X148900Y45600
X148900Y43900
X151000Y43900
X165900Y45000
X163600Y45400
X164900Y43300
X162400Y43900
X163400Y41700
X160600Y42600
X158600Y42100
X158600Y39900
X161200Y40400
X160000Y50500
X156400Y46300
X159800Y47000
X163900Y61100
X138500Y162000
X90430Y155300
X110100Y127000
X102600Y118400
X109250Y127918
X101350Y118400
X108800Y129168
X100100Y118400
X96000Y160000
X97000Y163000
X92700Y52700
X172400Y145800
X176300Y148900
X176600Y154200
X177100Y161700
X174500Y173800
X168700Y149900
X162500Y148600
X161800Y156100
X161600Y161200
X161900Y163900
X156500Y55500
X154400Y175500
X151400Y172600
X155800Y154100
X157600Y164600
X159700Y159500
X170200Y176700
X169900Y162700
X25500Y46000
X167900Y158800
X165600Y156300
X164600Y168300
X59200Y13600
X62300Y15400
X21500Y28000
X20250Y28000
X19000Y28000
X16500Y25140
X27500Y6900
X53700Y40200
X164900Y164500
X164200Y162200
X164400Y159600
X52450Y40100
X52300Y38000
X161700Y167000
X66100Y197300
X44900Y105150
X10300Y137100
X10250Y142000
X59180Y40200
X30700Y19300
X29450Y19300
X28200Y19300
X24500Y18573
X24500Y22300
X147100Y40800
X145700Y44600
X131600Y36600
X109200Y31200
X45100Y103900
X9000Y138100
X9000Y142000
X44100Y181600
X49600Y155300
X44250Y161800
X97172Y42500
X99900Y42500
X98200Y26600
X101700Y37100
X98600Y34000
X103300Y32600
X118900Y29500
X118900Y15600
X98487Y16538
X115475Y48825
X129200Y48825
X136400Y48500
X154000Y63600
X140900Y57900
X131100Y41500
X133200Y37000
X142500Y37600
X142000Y55300
X91700Y55700
X134800Y48800
X121662Y33413
X110525Y47925
X122787Y48037
X139000Y56500
X102175Y54725
X137750Y56500
X104620Y54631
X136474Y56574
X107300Y54800
X106250Y30037
X123462Y44325
X109200Y35500
X112900Y59100
X153100Y53100
X160800Y58000
X160800Y55800
X156600Y53500
X157200Y57100
X154800Y53500
X150400Y53700
X152400Y55100
X96772Y46600
X99600Y46600
X108500Y43000
X112000Y12000
X114200Y26500
X151100Y50700
X149200Y51500
X155300Y148900
X150300Y160400
X152100Y145300
X146600Y36100
X165900Y39600
X162600Y38300
X153700Y37000
X149300Y144400
M30